<svg width="40" height="40" viewBox="0 0 40 40" fill="none" xmlns="http://www.w3.org/2000/svg">
<path d="M15.7667 7.22004C17.9 4.85504 21.2433 3.33337 25 3.33337C31.4433 3.33337 36.6667 7.81004 36.6667 13.3334C36.6667 16.6484 34.7833 19.5867 31.8867 21.4067C31.8145 21.4509 31.7411 21.4931 31.6667 21.5334V28.2834C31.6666 28.6152 31.5676 28.9395 31.3821 29.2147C31.1967 29.4899 30.9333 29.7034 30.6258 29.828C30.3182 29.9526 29.9805 29.9826 29.6558 29.914C29.3311 29.8455 29.0343 29.6816 28.8033 29.4434L26.9033 27.4867C28.685 25.38 29.7333 22.7934 29.7333 19.9984C29.7333 13.22 23.57 7.67337 15.7667 7.22004Z" fill="#128C7E"/>
<path d="M17.3083 29.81L11.1966 36.11C10.9657 36.3483 10.6688 36.5121 10.3442 36.5807C10.0195 36.6492 9.68173 36.6192 9.37418 36.4946C9.06663 36.3701 8.80327 36.1565 8.61783 35.8813C8.4324 35.6061 8.33333 35.2818 8.33331 34.95V28.2C8.25886 28.1598 8.1855 28.1175 8.11331 28.0733C5.21498 26.2533 3.33331 23.315 3.33331 20C3.33331 14.4767 8.55665 10 15 10C21.4433 10 26.6666 14.4767 26.6666 20C26.6666 24.5433 23.1316 28.38 18.29 29.5967C17.9655 29.6798 17.638 29.751 17.3083 29.81Z" fill="#128C7E"/>
</svg>
